<?xml version="1.0" encoding="utf-8"?>
<!-- Generator: Adobe Illustrator 25.2.3, SVG Export Plug-In . SVG Version: 6.00 Build 0)  -->
<svg version="1.1" id="Layer_1" xmlns="http://www.w3.org/2000/svg" xmlns:xlink="http://www.w3.org/1999/xlink" x="0px" y="0px"
	 viewBox="0 0 838 636" style="enable-background:new 0 0 838 636;" xml:space="preserve">
<style type="text/css">
	.st0{fill:#42210B;}
	.st1{fill:#F7931E;}
</style>
<g>
	<path class="st0" d="M83.65,636.5c-44.75,0-81.15-36.41-81.15-81.16V81.65C2.5,36.91,38.91,0.5,83.65,0.5h671.69
		c44.75,0,81.16,36.41,81.16,81.15v473.69c0,44.75-36.41,81.16-81.16,81.16H83.65z"/>
	<path d="M755.35,1C799.82,1,836,37.18,836,81.65v473.69c0,44.47-36.18,80.65-80.65,80.65H83.65C39.18,636,3,599.82,3,555.35V81.65
		C3,37.18,39.18,1,83.65,1H755.35 M755.35,0H83.65C38.56,0,2,36.56,2,81.65v473.69C2,600.44,38.56,637,83.65,637h671.69
		c45.1,0,81.65-36.56,81.65-81.65V81.65C837,36.56,800.44,0,755.35,0L755.35,0z"/>
</g>
<g>
	<path class="st1" d="M198.47,393.34l-58.45,136.13H64.87l191.21-432.8h87.67l192.04,432.8h-77.65l-60.12-136.13H198.47z
		 M382.99,349.67L327.89,225.1c-12.52-28.25-20.87-53.94-29.22-78.98h-1.67c-8.35,25.69-17.53,52.01-28.39,78.34L213.5,349.67
		H382.99z"/>
</g>
<g>
	<path class="st1" d="M313.87,172.73l51.34-22.86l76.02,170.75l1.77-0.79c4.54-18.39,9.55-35.73,14.44-51.75l62.39-187.05
		l63.74-28.38l-77.1,214.37l245.96,134.75l-60.79,27.06L483.21,313.27l-20.46,55.69l60.11,135.03l-51.34,22.86L313.87,172.73z"/>
</g>
<g>
</g>
<g>
</g>
<g>
</g>
<g>
</g>
<g>
</g>
<g>
</g>
<g>
</g>
<g>
</g>
<g>
</g>
<g>
</g>
<g>
</g>
<g>
</g>
<g>
</g>
<g>
</g>
<g>
</g>
</svg>
