<?xml version="1.0" encoding="utf-8"?>
<!-- Generator: Adobe Illustrator 25.2.3, SVG Export Plug-In . SVG Version: 6.00 Build 0)  -->
<svg version="1.1" id="Layer_1" xmlns="http://www.w3.org/2000/svg" xmlns:xlink="http://www.w3.org/1999/xlink" x="0px" y="0px"
	 viewBox="0 0 1655 530" style="enable-background:new 0 0 1655 530;" xml:space="preserve">
<g>
	<path d="M223.73,518.07h-47.46L156.6,397.52H61.87L42.56,518.07H4.67l81.74-506.3h54.67L223.73,518.07z M144.69,324.45
		L108.79,98.56L72.88,324.45H144.69z"/>
	<path d="M291.94,518.07H250.8V11.77h41.14V518.07z"/>
	<path d="M387.39,518.07h-39.7V209.09h-27.07v-65.65h27.07V124.9c0-36.59,4.33-66.02,12.99-88.28s26.16-33.38,52.51-33.38
		c3.85,0,8.72,0.25,14.62,0.74v66.39c-5.17-0.74-8.72-1.11-10.65-1.11c-10.1,0-17.2,2.78-21.29,8.35
		c-4.09,5.56-6.53,12.12-7.31,19.66c-0.78,7.55-1.17,22.94-1.17,46.18h40.42v65.65h-40.42V518.07z"/>
	<path d="M614.03,518.07h-39.16c-3.49-22.75-5.59-47.97-6.32-75.67c-10.95,55.64-31.52,83.46-61.71,83.46
		c-18.17,0-32.75-10.94-43.76-32.83c-11.01-21.88-16.51-49.39-16.51-82.53c0-86.05,36.75-129.08,110.25-129.08
		c2.89,0,6.79,0.13,11.73,0.37V253.6c0-38.82-12.87-58.23-38.62-58.23c-25.02,0-39.22,19.42-42.58,58.23l-35.01-10.76
		c1.92-31.16,9.74-56.81,23.46-76.96c13.71-20.15,33.56-30.23,59.55-30.23c14.07,0,25.56,2.41,34.46,7.23
		c8.9,4.82,16.42,12.98,22.56,24.48c6.14,11.5,10.38,23.99,12.72,37.46c2.35,13.48,3.52,36.29,3.52,68.43V442.4
		C608.62,466.88,610.42,492.1,614.03,518.07z M568.56,327.42c-53.17,0-79.76,26.09-79.76,78.26c0,15.58,2.68,28.87,8.03,39.87
		c5.35,11.01,13.44,16.51,24.27,16.51c15.64,0,27.46-10.2,35.46-30.6c8-20.4,12-43.58,12-69.55V327.42z"/>
	<path d="M779.31,452.41v65.65h-137.5v-65.65l87.88-243.32h-79.58v-65.65h129.2v59.72l-90.04,249.25H779.31z"/>
	<path d="M1074.52,518.07h-43.31l-46.55-192.13l-40.42,93.1v99.03H904.9V11.77h39.34v314.17c3.49-9.39,6.25-16.44,8.3-21.14
		l72.18-161.35h44.21l-54.86,123.89L1074.52,518.07z"/>
	<path d="M1254.96,518.07h-39.16c-3.49-22.75-5.59-47.97-6.32-75.67c-10.95,55.64-31.52,83.46-61.71,83.46
		c-18.17,0-32.75-10.94-43.76-32.83c-11.01-21.88-16.51-49.39-16.51-82.53c0-86.05,36.75-129.08,110.25-129.08
		c2.89,0,6.79,0.13,11.73,0.37V253.6c0-38.82-12.87-58.23-38.62-58.23c-25.02,0-39.22,19.42-42.58,58.23l-35.01-10.76
		c1.92-31.16,9.74-56.81,23.46-76.96c13.71-20.15,33.56-30.23,59.55-30.23c14.08,0,25.56,2.41,34.46,7.23
		c8.9,4.82,16.42,12.98,22.56,24.48c6.13,11.5,10.38,23.99,12.72,37.46c2.35,13.48,3.52,36.29,3.52,68.43V442.4
		C1249.55,466.88,1251.36,492.1,1254.96,518.07z M1209.49,327.42c-53.17,0-79.76,26.09-79.76,78.26c0,15.58,2.68,28.87,8.03,39.87
		c5.35,11.01,13.44,16.51,24.27,16.51c15.64,0,27.46-10.2,35.46-30.6c8-20.4,12-43.58,12-69.55V327.42z"/>
	<path d="M1468.43,518.07h-43.31l-46.55-192.13l-40.42,93.1v99.03h-39.34V11.77h39.34v314.17c3.49-9.39,6.25-16.44,8.3-21.14
		l72.18-161.35h44.21l-54.86,123.89L1468.43,518.07z"/>
	<path d="M1648.87,518.07h-39.16c-3.49-22.75-5.59-47.97-6.32-75.67c-10.95,55.64-31.52,83.46-61.71,83.46
		c-18.17,0-32.75-10.94-43.76-32.83c-11.01-21.88-16.51-49.39-16.51-82.53c0-86.05,36.75-129.08,110.25-129.08
		c2.89,0,6.79,0.13,11.73,0.37V253.6c0-38.82-12.87-58.23-38.62-58.23c-25.02,0-39.22,19.42-42.58,58.23l-35.01-10.76
		c1.92-31.16,9.74-56.81,23.46-76.96c13.71-20.15,33.56-30.23,59.55-30.23c14.08,0,25.56,2.41,34.46,7.23
		c8.9,4.82,16.42,12.98,22.56,24.48c6.13,11.5,10.38,23.99,12.72,37.46c2.35,13.48,3.52,36.29,3.52,68.43V442.4
		C1643.46,466.88,1645.26,492.1,1648.87,518.07z M1603.4,327.42c-53.17,0-79.76,26.09-79.76,78.26c0,15.58,2.68,28.87,8.03,39.87
		c5.35,11.01,13.44,16.51,24.27,16.51c15.64,0,27.46-10.2,35.46-30.6c8-20.4,12-43.58,12-69.55V327.42z"/>
</g>
<g>
</g>
<g>
</g>
<g>
</g>
<g>
</g>
<g>
</g>
<g>
</g>
<g>
</g>
<g>
</g>
<g>
</g>
<g>
</g>
<g>
</g>
<g>
</g>
<g>
</g>
<g>
</g>
<g>
</g>
</svg>
